<svg data-v-423bf9ae="" xmlns="http://www.w3.org/2000/svg" viewBox="0 0 204 90" class="iconLeft"><!----><!----><!----><g data-v-423bf9ae="" id="ad8a9cab-8d5a-4b92-b343-2608add6b46e" fill="black" transform="matrix(4.467609727222167,0,0,4.467609727222167,88.45221261155018,12.006703255943854)"><path d="M9.23 1.61Q9.55 1.67 9.55 1.85L9.55 1.85Q9.55 1.99 9.35 2.16Q9.16 2.34 8.90 2.45Q8.64 2.56 8.46 2.53L8.46 2.53Q7.78 2.44 7.03 2.44L7.03 2.44Q5.70 2.44 3.99 2.81L3.99 2.81Q3.47 4.55 2.97 6.62L2.97 6.62Q4.59 6.26 5.82 6.26L5.82 6.26Q6.17 6.26 6.36 6.27L6.36 6.27Q6.65 6.29 6.65 6.54L6.65 6.54Q6.65 6.82 6.35 6.99Q6.05 7.15 5.73 7.17L5.73 7.17Q4.23 7.29 2.74 7.59L2.74 7.59Q2.34 9.30 1.97 11.31L1.97 11.31Q3.51 11.24 4.76 11.24L4.76 11.24Q6.41 11.24 7.80 11.40L7.80 11.40Q8.09 11.44 8.09 11.68L8.09 11.68Q8.09 11.80 8.01 11.96L8.01 11.96Q7.87 12.17 7.58 12.26Q7.29 12.35 7.01 12.32L7.01 12.32Q6.20 12.25 5.07 12.25L5.07 12.25Q4.13 12.25 3.18 12.29L3.18 12.29Q2.23 12.32 1.75 12.32L1.75 12.32Q1.61 12.52 1.28 12.66Q0.95 12.80 0.67 12.80L0.67 12.80Q0.46 12.80 0.35 12.71Q0.24 12.63 0.27 12.47L0.27 12.47Q0.27 12.43 0.29 12.32L0.29 12.32L0.27 12.32Q-0.20 12.32-0.20 12.08L-0.20 12.08Q-0.20 11.93 0 11.75Q0.20 11.56 0.45 11.45L0.45 11.45Q0.88 9.09 1.34 7.08Q1.81 5.07 2.42 3.21L2.42 3.21L2.31 3.22Q2.14 3.22 2.05 3.14Q1.96 3.05 1.96 2.93L1.96 2.93Q1.96 2.76 2.10 2.59Q2.24 2.42 2.48 2.34L2.48 2.34L2.74 2.25L2.81 2.07Q2.88 1.86 3.19 1.71Q3.50 1.57 3.81 1.57L3.81 1.57Q4.21 1.57 4.26 1.83L4.26 1.83Q5.92 1.44 7.35 1.44L7.35 1.44Q8.30 1.44 9.23 1.61L9.23 1.61ZM16.27 1.20Q16.37 1.05 16.77 0.86Q17.16 0.67 17.44 0.67L17.44 0.67Q17.81 0.67 17.75 1.02L17.75 1.02Q17.60 1.93 17.37 2.97Q17.14 4.02 17.08 4.30L17.08 4.30Q16.60 6.48 16.41 7.59L16.41 7.59L16.31 8.13Q16.16 8.95 16.06 9.60Q15.97 10.26 15.97 10.89L15.97 10.89Q15.97 12.39 16.60 13.17L16.60 13.17Q16.69 13.29 16.69 13.40L16.69 13.40Q16.69 13.66 16.33 13.88Q15.97 14.10 15.62 14.10L15.62 14.10Q15.33 14.10 15.22 13.94L15.22 13.94Q14.48 13.02 14.48 11.33L14.48 11.33Q14.48 10.65 14.55 10.02Q14.63 9.39 14.80 8.41L14.80 8.41Q15.02 6.99 15.54 4.75L15.54 4.75Q15.51 4.77 15.51 4.79L15.51 4.79Q15.43 4.93 15.15 5.49L15.15 5.49Q14.73 6.34 14.36 6.83Q14 7.32 13.44 7.50L13.44 7.50Q13.17 7.59 12.94 7.59L12.94 7.59Q12.46 7.59 12.24 7.22Q12.01 6.85 11.97 6.22L11.97 6.22L11.93 5.54Q11.80 5.94 11.66 6.45L11.66 6.45L11.40 7.36Q10.91 9.06 10.54 10.17Q10.16 11.28 9.67 12.35L9.67 12.35Q9.59 12.54 9.23 12.70Q8.88 12.85 8.55 12.85L8.55 12.85Q8.37 12.85 8.26 12.79Q8.15 12.73 8.15 12.60L8.15 12.60Q8.15 12.53 8.19 12.45L8.19 12.45Q8.69 11.33 9.07 10.17Q9.45 9.02 10.00 7.13L10.00 7.13L10.25 6.26Q10.81 4.35 11.12 3.40L11.12 3.40L11.20 3.11Q11.34 2.65 11.47 2.35Q11.59 2.06 11.79 1.82L11.79 1.82Q11.90 1.68 12.20 1.54Q12.50 1.40 12.77 1.40L12.77 1.40Q13.17 1.40 13.19 1.76L13.19 1.76Q13.22 2.39 13.33 3.65L13.33 3.65L13.38 4.31Q13.40 4.44 13.40 4.82L13.40 4.82Q13.40 5.54 13.44 5.89L13.44 5.89L13.80 5.26Q13.97 4.96 14.52 4.02L14.52 4.02Q15.25 2.80 16.27 1.20L16.27 1.20ZM24.79 7.81Q25.68 8.58 25.68 9.39L25.68 9.39Q25.68 9.93 25.31 10.46L25.31 10.46Q24.02 12.31 22.29 12.74L22.29 12.74Q21.84 12.85 21.28 12.85L21.28 12.85Q19.96 12.85 18.76 12.19L18.76 12.19Q18.19 11.89 17.96 11.40Q17.74 10.91 17.74 10.23L17.74 10.23Q17.74 9.76 17.85 8.86L17.85 8.86Q17.89 8.62 18.24 8.62L18.24 8.62Q18.63 8.62 19.04 8.88Q19.45 9.13 19.40 9.44L19.40 9.44Q19.39 9.55 19.33 9.93Q19.28 10.32 19.28 10.64L19.28 10.64Q19.28 11.37 19.63 11.62L19.63 11.62Q19.98 11.87 20.54 11.87L20.54 11.87Q21.10 11.87 21.70 11.63L21.70 11.63Q22.16 11.45 22.73 11.03Q23.30 10.61 23.70 10.08Q24.09 9.55 24.09 9.04L24.09 9.04Q24.09 8.64 23.81 8.30L23.81 8.30Q23.53 7.98 23.02 7.69Q22.51 7.39 21.67 7L21.67 7Q20.64 6.51 20.01 6.14Q19.39 5.77 18.94 5.26Q18.49 4.75 18.49 4.10L18.49 4.10Q18.49 3.81 18.56 3.58L18.56 3.58Q18.90 2.32 20.22 1.77Q21.55 1.22 23.09 1.22L23.09 1.22Q23.76 1.22 24.26 1.30Q24.77 1.39 25.10 1.67L25.10 1.67Q25.48 1.97 25.48 2.53L25.48 2.53Q25.48 2.87 25.38 3.20Q25.27 3.53 25.06 4.09L25.06 4.09Q24.91 4.47 24.88 4.55L24.88 4.55Q24.79 4.79 24.42 4.79L24.42 4.79Q24.04 4.79 23.67 4.58Q23.31 4.37 23.31 4.10L23.31 4.10Q23.31 4.03 23.32 3.99L23.32 3.99L23.53 3.39Q23.67 3.00 23.73 2.80L23.73 2.80L23.83 2.21L23.83 2.21Q22.06 2.18 21.01 2.93L21.01 2.93Q20.59 3.21 20.36 3.58Q20.13 3.95 20.13 4.33L20.13 4.33Q20.13 4.98 20.79 5.46L20.79 5.46Q21.27 5.80 21.85 6.09Q22.43 6.38 22.55 6.45L22.55 6.45Q23.37 6.86 23.86 7.14Q24.36 7.42 24.79 7.81L24.79 7.81Z"></path></g><!----><g data-v-423bf9ae="" id="c81cbf1c-fdb5-4fe8-86e4-bd740d06ba1e" transform="matrix(1.0170317434453005,0,0,1.0170317434453005,-18.085078927933132,-5.095888717546167)" stroke="none" fill="black"><circle cx="45.14" cy="18.003" r="12.373"></circle><path d="M70.509 64.249l-3.23-22.158a6.852 6.852 0 00-6.792-6.002l-12.548-.014v2.353c0 .536-.328.996-.793 1.191l3.747 27.468-5.86 8.161-5.645-8.161 3.525-27.529a1.286 1.286 0 01-.679-1.13v-2.359l-13.627-.015a6.85 6.85 0 00-6.83 6.228l-3.811 32.685a3.911 3.911 0 003.896 4.257h32.099c.991-8.332 7.991-14.806 16.548-14.975z"></path><path d="M81.919 73.165l-13.796 14.44a.376.376 0 01-.618-.113l-3.456-8.158a.372.372 0 01.105-.431l2.585-2.139a.376.376 0 01.588.149l1.853 4.599a.396.396 0 00.639.141l10.752-10.104a13.247 13.247 0 00-11.152-3.874c-5.933.731-10.733 5.509-11.483 11.44-1.097 8.673 6.183 15.97 14.85 14.904 5.759-.708 10.481-5.239 11.411-10.966.605-3.708-.345-7.172-2.278-9.888z"></path></g><!----></svg>